<?xml version="1.0" encoding="UTF-8"?>
<svg width="42px" height="42px" viewBox="0 0 42 42" version="1.1" xmlns="http://www.w3.org/2000/svg" xmlns:xlink="http://www.w3.org/1999/xlink">
    <!-- Generator: Sketch 46 (44423) - http://www.bohemiancoding.com/sketch -->
    <title>ic_marks</title>
    <desc>Created with Sketch.</desc>
    <defs>
        <path d="M15,30 C6.71572875,30 0,23.2842712 0,15 C0,6.71572875 6.71572875,0 15,0 C23.2842712,0 30,6.71572875 30,15 C30,23.2842712 23.2842712,30 15,30 Z" id="path-1"></path>
        <filter x="-30.0%" y="-30.0%" width="160.0%" height="160.0%" filterUnits="objectBoundingBox" id="filter-2">
            <feOffset dx="0" dy="0" in="SourceAlpha" result="shadowOffsetOuter1"></feOffset>
            <feGaussianBlur stdDeviation="3" in="shadowOffsetOuter1" result="shadowBlurOuter1"></feGaussianBlur>
            <feColorMatrix values="0 0 0 0 0.164705882   0 0 0 0 0.807843137   0 0 0 0 0.466666667  0 0 0 1 0" type="matrix" in="shadowBlurOuter1"></feColorMatrix>
        </filter>
    </defs>
    <g id="Test-Analytics" stroke="none" stroke-width="1" fill="none" fill-rule="evenodd">
        <g id="ic_marks" transform="translate(6.000000, 6.000000)" fill-rule="nonzero">
            <g id="Oval-12">
                <use fill="black" fill-opacity="1" filter="url(#filter-2)" xlink:href="#path-1"></use>
                <use fill="#2ACE77" fill-rule="evenodd" xlink:href="#path-1"></use>
            </g>
            <path d="M11.3940781,19.7152345 C11.7737654,20.0949218 12.3893603,20.0949218 12.7690476,19.7152345 L20.8245471,11.659735 C21.2042344,11.2800477 21.2042344,10.6644529 20.8245471,10.2847655 C20.4448597,9.90507816 19.8292649,9.90507816 19.4495775,10.2847655 L12.0792824,17.6504997 L9.65973503,15.2309524 C9.28004768,14.851265 8.66445286,14.851265 8.28476551,15.2309524 C7.90507816,15.6106397 7.90507816,16.2262346 8.28476551,16.6059219 L11.3940781,19.7152345 Z" id="Path-1556" fill="#FFFFFF"></path>
        </g>
    </g>
</svg>