<?xml version="1.0" encoding="UTF-8"?>
<svg width="42px" height="42px" viewBox="0 0 42 42" version="1.1" xmlns="http://www.w3.org/2000/svg" xmlns:xlink="http://www.w3.org/1999/xlink">
    <!-- Generator: Sketch 46 (44423) - http://www.bohemiancoding.com/sketch -->
    <title>ic_name</title>
    <desc>Created with Sketch.</desc>
    <defs>
        <path d="M15,30 C6.71572875,30 -8.77076189e-15,23.2842712 -8.77076189e-15,15 C-8.77076189e-15,6.71572875 6.71572875,-8.77076189e-15 15,-8.77076189e-15 C23.2842712,-8.77076189e-15 30,6.71572875 30,15 C30,23.2842712 23.2842712,30 15,30 Z" id="path-1"></path>
        <filter x="-30.0%" y="-30.0%" width="160.0%" height="160.0%" filterUnits="objectBoundingBox" id="filter-2">
            <feOffset dx="0" dy="0" in="SourceAlpha" result="shadowOffsetOuter1"></feOffset>
            <feGaussianBlur stdDeviation="3" in="shadowOffsetOuter1" result="shadowBlurOuter1"></feGaussianBlur>
            <feColorMatrix values="0 0 0 0 0.188235294   0 0 0 0 0.662745098   0 0 0 0 0.941176471  0 0 0 1 0" type="matrix" in="shadowBlurOuter1"></feColorMatrix>
        </filter>
    </defs>
    <g id="Test-Analytics" stroke="none" stroke-width="1" fill="none" fill-rule="evenodd">
        <g id="ic_name" transform="translate(6.000000, 6.000000)" fill-rule="nonzero">
            <g id="Oval-12">
                <use fill="black" fill-opacity="1" filter="url(#filter-2)" xlink:href="#path-1"></use>
                <use fill="#30A9F0" fill-rule="evenodd" xlink:href="#path-1"></use>
            </g>
            <g id="Group-47" transform="translate(8.538912, 6.115441)" fill="#FFFFFF">
                <path d="M6.51364764,7.37903226 C4.5556406,7.37903226 2.96836228,5.79175394 2.96836228,3.8337469 C2.96836228,1.87573986 4.5556406,0.288461538 6.51364764,0.288461538 C8.47165468,0.288461538 10.058933,1.87573986 10.058933,3.8337469 C10.058933,5.79175394 8.47165468,7.37903226 6.51364764,7.37903226 Z M6.51364764,5.64826303 C7.51577723,5.64826303 8.32816377,4.83587648 8.32816377,3.8337469 C8.32816377,2.83161731 7.51577723,2.01923077 6.51364764,2.01923077 C5.51151806,2.01923077 4.69913151,2.83161731 4.69913151,3.8337469 C4.69913151,4.83587648 5.51151806,5.64826303 6.51364764,5.64826303 Z" id="Oval-10"></path>
                <path d="M4.40992304,14.2462779 C3.93198432,14.2462779 3.54453843,14.6337238 3.54453843,15.1116625 C3.54453843,15.5896013 3.93198432,15.9770471 4.40992304,15.9770471 L11.8734491,15.9770471 C12.3513879,15.9770471 12.7388337,15.5896013 12.7388337,15.1116625 C12.7388337,11.6735872 9.95172299,8.88647643 6.51364764,8.88647643 C3.07557229,8.88647643 0.288461538,11.6735872 0.288461538,15.1116625 C0.288461538,15.5896013 0.675907428,15.9770471 1.15384615,15.9770471 C1.63178488,15.9770471 2.01923077,15.5896013 2.01923077,15.1116625 C2.01923077,12.6294646 4.03144974,10.6172457 6.51364764,10.6172457 C8.69982803,10.6172457 10.5214412,12.1781433 10.9248267,14.2462779 L4.40992304,14.2462779 Z" id="Oval-11"></path>
            </g>
        </g>
    </g>
</svg>