<?xml version="1.0" encoding="UTF-8"?>
<svg width="42px" height="42px" viewBox="0 0 42 42" version="1.1" xmlns="http://www.w3.org/2000/svg" xmlns:xlink="http://www.w3.org/1999/xlink">
    <!-- Generator: Sketch 46 (44423) - http://www.bohemiancoding.com/sketch -->
    <title>ic_rank</title>
    <desc>Created with Sketch.</desc>
    <defs>
        <path d="M15,30 C6.71572875,30 0,23.2842712 0,15 C0,6.71572875 6.71572875,0 15,0 C23.2842712,0 30,6.71572875 30,15 C30,23.2842712 23.2842712,30 15,30 Z" id="path-1"></path>
        <filter x="-30.0%" y="-30.0%" width="160.0%" height="160.0%" filterUnits="objectBoundingBox" id="filter-2">
            <feOffset dx="0" dy="0" in="SourceAlpha" result="shadowOffsetOuter1"></feOffset>
            <feGaussianBlur stdDeviation="3" in="shadowOffsetOuter1" result="shadowBlurOuter1"></feGaussianBlur>
            <feColorMatrix values="0 0 0 0 1   0 0 0 0 0.792303334   0 0 0 0 0.211529356  0 0 0 1 0" type="matrix" in="shadowBlurOuter1"></feColorMatrix>
        </filter>
    </defs>
    <g id="Test-Analytics" stroke="none" stroke-width="1" fill="none" fill-rule="evenodd">
        <g id="ic_rank" transform="translate(6.000000, 6.000000)" fill-rule="nonzero">
            <g id="Oval-12">
                <use fill="black" fill-opacity="1" filter="url(#filter-2)" xlink:href="#path-1"></use>
                <use fill="#FFCA36" fill-rule="evenodd" xlink:href="#path-1"></use>
            </g>
            <path d="M15.8383726,18.5693177 L18.3985456,19.8281679 C18.4166237,19.8370569 18.4369649,19.8402787 18.456905,19.8374111 C18.5115711,19.8295496 18.5495137,19.778861 18.5416522,19.7241949 L18.1355515,16.9003195 C18.0516898,16.3171762 18.2430857,15.7281203 18.6536942,15.3056401 L20.6420689,13.2597769 C20.6561093,13.2453306 20.6654592,13.2269805 20.6688937,13.2071302 C20.6783098,13.1527103 20.6418269,13.1009611 20.5874071,13.0915451 L17.77625,12.6051444 C17.195733,12.5047003 16.6946522,12.1406438 16.4197346,11.6195783 L15.0884447,9.09631512 C15.0790441,9.07849774 15.0644814,9.06393499 15.046664,9.05453442 C14.9978173,9.02876261 14.9373271,9.04746847 14.9115553,9.09631512 L13.5802654,11.6195783 C13.3053478,12.1406438 12.804267,12.5047003 12.22375,12.6051444 L9.41259294,13.0915451 C9.39274266,13.0949797 9.37439253,13.1043296 9.35994618,13.11837 C9.32034129,13.156862 9.31943911,13.2201721 9.35793111,13.2597769 L11.3463058,15.3056401 C11.7569143,15.7281203 11.9483102,16.3171762 11.8644485,16.9003195 L11.4583478,19.7241949 C11.4554803,19.744135 11.458702,19.7644763 11.4675911,19.7825543 C11.4919605,19.8321155 11.5518932,19.8525374 11.6014544,19.8281679 L14.1616274,18.5693177 C14.690315,18.3093593 15.309685,18.3093593 15.8383726,18.5693177 Z M12.3957021,21.4434607 C11.4540393,21.9064811 10.3153186,21.5184648 9.85229826,20.576802 C9.68340617,20.2333195 9.62219305,19.8468351 9.67667705,19.4679734 L10.0827777,16.644098 C10.0871915,16.6134062 10.077118,16.5824033 10.0555071,16.5601675 L8.06713242,14.5143043 C7.33578407,13.761811 7.35292546,12.5589197 8.10541879,11.8275713 C8.37989951,11.5608035 8.72855213,11.3831561 9.10570757,11.3178987 L11.9168647,10.8314979 C11.9474182,10.8262114 11.9737908,10.8070506 11.9882602,10.7796261 L13.3195501,8.2563629 C13.8092147,7.32827606 14.9585294,6.97286462 15.8866162,7.46252923 C16.2251467,7.64114011 16.501839,7.9178324 16.6804499,8.2563629 L18.0117398,10.7796261 C18.0262092,10.8070506 18.0525818,10.8262114 18.0831353,10.8314979 L20.8942924,11.3178987 C21.9282702,11.4968028 22.6214443,12.4800378 22.4425402,13.5140156 C22.3772828,13.891171 22.1996354,14.2398236 21.9328676,14.5143043 L19.9444929,16.5601675 C19.922882,16.5824033 19.9128085,16.6134062 19.9172223,16.644098 L20.3233229,19.4679734 C20.4726917,20.506629 19.7517822,21.4697131 18.7131266,21.6190819 C18.3342648,21.6735659 17.9477804,21.6123528 17.6042979,21.4434607 L15.0441249,20.1846105 C15.0162992,20.1709285 14.9837008,20.1709285 14.9558751,20.1846105 L12.3957021,21.4434607 Z" id="Star" fill="#FFFFFF"></path>
        </g>
    </g>
</svg>