<?xml version="1.0" encoding="UTF-8"?>
<svg width="140px" height="142px" viewBox="0 0 140 142" version="1.1" xmlns="http://www.w3.org/2000/svg" xmlns:xlink="http://www.w3.org/1999/xlink">
    <!-- Generator: Sketch 51.2 (57519) - http://www.bohemiancoding.com/sketch -->
    <title>ic_rating_zero</title>
    <desc>Created with Sketch.</desc>
    <defs>
        <rect id="path-1" x="6" y="19" width="86" height="102" rx="2.9922556"></rect>
        <filter x="-1.7%" y="-0.5%" width="102.3%" height="102.0%" filterUnits="objectBoundingBox" id="filter-2">
            <feOffset dx="-1" dy="1" in="SourceAlpha" result="shadowOffsetOuter1"></feOffset>
            <feColorMatrix values="0 0 0 0 0   0 0 0 0 0   0 0 0 0 0  0 0 0 0.03 0" type="matrix" in="shadowOffsetOuter1"></feColorMatrix>
        </filter>
        <path d="M41.2518831,6 C42.1397634,2.54958551 45.2721086,0 49,0 C52.7278914,0 55.8602366,2.54958551 56.7481169,6 L67.0051629,6 C68.106881,6 69,6.89311898 69,7.99483707 L69,22.0051629 C69,23.106881 68.106881,24 67.0051629,24 L30.9948371,24 C29.893119,24 29,23.106881 29,22.0051629 L29,7.99483707 C29,6.89311898 29.893119,6 30.9948371,6 L41.2518831,6 Z M49,12.9990165 C51.7614237,12.9990165 54,10.7606604 54,7.99950825 C54,5.23835609 51.7614237,3 49,3 C46.2385763,3 44,5.23835609 44,7.99950825 C44,10.7606604 46.2385763,12.9990165 49,12.9990165 Z" id="path-3"></path>
        <filter x="-6.2%" y="-10.7%" width="112.5%" height="121.3%" filterUnits="objectBoundingBox" id="filter-4">
            <feOffset dx="-1" dy="1" in="SourceAlpha" result="shadowOffsetInner1"></feOffset>
            <feComposite in="shadowOffsetInner1" in2="SourceAlpha" operator="arithmetic" k2="-1" k3="1" result="shadowInnerInner1"></feComposite>
            <feColorMatrix values="0 0 0 0 0   0 0 0 0 0   0 0 0 0 0  0 0 0 0.03 0" type="matrix" in="shadowInnerInner1"></feColorMatrix>
        </filter>
    </defs>
    <g id="Test-Analytics" stroke="none" stroke-width="1" fill="none" fill-rule="evenodd">
        <g id="Test-Feedback-(0-Star)" transform="translate(-613.000000, -340.000000)">
            <g id="Login-Dialog-Copy-3" transform="translate(483.000000, 226.000000)">
                <g id="ic_rating_zero" transform="translate(130.000000, 114.000000)">
                    <ellipse id="Oval-323" fill="#EFEFF4" cx="70" cy="134.5" rx="62" ry="7.5"></ellipse>
                    <g id="Group-20" transform="translate(21.000000, 2.000000)">
                        <rect id="Rectangle-1596" stroke="#FFFFFF" stroke-width="2" fill="#0090FF" x="-1" y="12" width="100" height="119" rx="5.9845112"></rect>
                        <g id="Rectangle-1596-Copy">
                            <use fill="black" fill-opacity="1" filter="url(#filter-2)" xlink:href="#path-1"></use>
                            <use fill="#FFFFFF" fill-rule="evenodd" xlink:href="#path-1"></use>
                        </g>
                        <g id="Group-3" transform="translate(24.000000, 73.000000)" stroke="#515151" stroke-linecap="round" stroke-width="2">
                            <path d="M3.49285999,4.58223522 L6.39429504,0.614613716 C7.0463952,-0.277112816 8.10869885,-0.270220231 8.75575861,0.614613716 L11.6571937,4.58223522" id="Path-580" stroke-linejoin="round"></path>
                            <path d="M39.3698918,4.58223522 L42.2713269,0.614613716 C42.923427,-0.277112816 43.9857307,-0.270220231 44.6327905,0.614613716 L47.5342255,4.58223522" id="Path-580-Copy" stroke-linejoin="round"></path>
                            <path d="M12.4554303,25.7249099 C12.4554303,25.7249099 16.3385451,28.8101618 25.5135428,28.8101618 C34.6885404,28.8101618 38.5716552,25.7249099 38.5716552,25.7249099" id="Line"></path>
                        </g>
                        <g id="Combined-Shape">
                            <use fill="#FF4081" fill-rule="evenodd" xlink:href="#path-3"></use>
                            <use fill="black" fill-opacity="1" filter="url(#filter-4)" xlink:href="#path-3"></use>
                            <path stroke="#FFFFFF" stroke-width="2" d="M40.5119637,5 C41.7628696,1.45450096 45.1364511,-1 49,-1 C52.8635489,-1 56.2371304,1.45450096 57.4880363,5 L67.0051629,5 C68.6591658,5 70,6.34083423 70,7.99483707 L70,22.0051629 C70,23.6591658 68.6591658,25 67.0051629,25 L30.9948371,25 C29.3408342,25 28,23.6591658 28,22.0051629 L28,7.99483707 C28,6.34083423 29.3408342,5 30.9948371,5 L40.5119637,5 Z M49,11.9990165 C51.209161,11.9990165 53,10.2083536 53,7.99950825 C53,5.79066286 51.209161,4 49,4 C46.790839,4 45,5.79066286 45,7.99950825 C45,10.2083536 46.790839,11.9990165 49,11.9990165 Z"></path>
                        </g>
                    </g>
                </g>
            </g>
        </g>
    </g>
</svg>