<?xml version="1.0" encoding="UTF-8"?>
<svg width="42px" height="42px" viewBox="0 0 42 42" version="1.1" xmlns="http://www.w3.org/2000/svg" xmlns:xlink="http://www.w3.org/1999/xlink">
    <!-- Generator: Sketch 46 (44423) - http://www.bohemiancoding.com/sketch -->
    <title>ic_time_spent</title>
    <desc>Created with Sketch.</desc>
    <defs>
        <path d="M15,30 C6.71572875,30 0,23.2842712 0,15 C0,6.71572875 6.71572875,0 15,0 C23.2842712,0 30,6.71572875 30,15 C30,23.2842712 23.2842712,30 15,30 Z" id="path-1"></path>
        <filter x="-30.0%" y="-30.0%" width="160.0%" height="160.0%" filterUnits="objectBoundingBox" id="filter-2">
            <feOffset dx="0" dy="0" in="SourceAlpha" result="shadowOffsetOuter1"></feOffset>
            <feGaussianBlur stdDeviation="3" in="shadowOffsetOuter1" result="shadowBlurOuter1"></feGaussianBlur>
            <feColorMatrix values="0 0 0 0 1   0 0 0 0 0.250980392   0 0 0 0 0.505882353  0 0 0 1 0" type="matrix" in="shadowBlurOuter1"></feColorMatrix>
        </filter>
    </defs>
    <g id="Test-Analytics" stroke="none" stroke-width="1" fill="none" fill-rule="evenodd">
        <g id="ic_time_spent" transform="translate(6.000000, 6.000000)">
            <g id="Oval-12" fill-rule="nonzero">
                <use fill="black" fill-opacity="1" filter="url(#filter-2)" xlink:href="#path-1"></use>
                <use fill="#FF4081" fill-rule="evenodd" xlink:href="#path-1"></use>
            </g>
            <path d="M15.9,7.19999695 C15.9,6.70294065 15.4970563,6.29999691 15,6.29999691 C14.5029437,6.29999691 14.1,6.70294065 14.1,7.19999695 L14.1,15.1656945 C14.1,15.3755362 14.1733246,15.5787821 14.307296,15.7402911 L19.7056583,22.2482779 C20.0229993,22.6308478 20.5903891,22.6837263 20.9729589,22.3663853 C21.3555288,22.0490444 21.4084072,21.4816546 21.0910663,21.0990847 L15.9,14.8410033 L15.9,7.19999695 Z" id="Path-2" fill="#FFFFFF" fill-rule="nonzero"></path>
            <circle id="Oval" fill="#FFFFFF" cx="15" cy="15" r="2"></circle>
        </g>
    </g>
</svg>