<svg xmlns="http://www.w3.org/2000/svg" xmlns:xlink="http://www.w3.org/1999/xlink" width="153.569" height="48.283" viewBox="0 0 153.569 48.283">
  <defs>
    <clipPath id="clip-path">
      <path id="Path_3153" data-name="Path 3153" d="M43.061,26.479,23.769,59.905a7.433,7.433,0,0,0,6.425,11.148H42.251a2.227,2.227,0,0,0,2.172-1.731L46.26,61.39a1.478,1.478,0,0,0-1.486-1.485H40.491a2.226,2.226,0,0,1-1.929-3.337l9-15.6a2.225,2.225,0,0,1,3.855,0l9,15.6a2.225,2.225,0,0,1-1.929,3.337H54.166a1.475,1.475,0,0,0-1.483,1.485l1.835,7.932a2.227,2.227,0,0,0,2.172,1.731H68.777A7.431,7.431,0,0,0,75.2,59.905L55.912,26.479a7.42,7.42,0,0,0-12.851,0" transform="translate(-22.762 -22.77)"/>
    </clipPath>
  </defs>
  <g id="Group_3940" data-name="Group 3940" transform="translate(-473.295 -266.818)">
    <g id="Group_3939" data-name="Group 3939" transform="translate(473.295 266.818)">
      <g id="Group_3938" data-name="Group 3938" transform="translate(0 0)" clip-path="url(#clip-path)">
        <path id="Path_3161" data-name="Path 3161" d="M0,0H57.156V48.286H0Z" transform="translate(-1.855)" fill="#ee3e56"/>
      </g>
    </g>
    <path id="Path_3154" data-name="Path 3154" d="M250.859,107.806q-3.694,0-3.689-3.949v-1.422c0-2.264,1.24-3.412,3.719-3.412h4.621V98.2c0-1.01-.459-1.5-1.361-1.5h-6.1V93.24h6.1c3.06,0,4.6,1.622,4.6,4.851v9.715Zm4.649-6.168h-4.178c-.689,0-1.024.368-1.024,1.1v.858a.892.892,0,0,0,1.024.993h4.178Z" transform="translate(288.359 193.1)" fill="#161324"/>
    <path id="Path_3155" data-name="Path 3155" d="M301.515,93.89q-4.636,0-4.635-4.851V84.191c0-3.246,1.547-4.851,4.635-4.851H305V74h3.381V93.89Zm3.5-11.107h-3.381c-.9,0-1.361.5-1.361,1.5v4.652c0,1.01.459,1.5,1.361,1.5h3.381Z" transform="translate(252.405 207.016)" fill="#161324"/>
    <path id="Path_3156" data-name="Path 3156" d="M351.215,93.89q-4.636,0-4.635-4.851V84.191c0-3.246,1.547-4.851,4.635-4.851H354.7V74h3.381V93.89ZM354.7,82.783h-3.381c-.9,0-1.361.5-1.361,1.5v4.652c0,1.01.459,1.5,1.361,1.5H354.7Z" transform="translate(216.458 207.016)" fill="#161324"/>
    <path id="Path_3157" data-name="Path 3157" d="M399.469,107.806q-3.694,0-3.689-3.949v-1.422c0-2.264,1.24-3.412,3.716-3.412h4.635V98.2c0-1.01-.459-1.5-1.361-1.5h-6.118V93.24h6.107c3.06,0,4.6,1.622,4.6,4.851v9.715Zm4.649-6.168h-4.176c-.689,0-1.024.368-1.024,1.1v.858a.891.891,0,0,0,1.024.993h4.176Z" transform="translate(180.872 193.1)" fill="#161324"/>
    <path id="Path_3158" data-name="Path 3158" d="M463.586,107.949H453.61v-4.591a3.6,3.6,0,0,1,3.595-3.595H460a.718.718,0,0,0,.719-.719V97.057a.718.718,0,0,0-.719-.719h-6.378V93.46H460a3.6,3.6,0,0,1,3.595,3.595v1.987a3.6,3.6,0,0,1-3.595,3.6h-2.8a.717.717,0,0,0-.719.717v1.713h7.1v2.881Z" transform="translate(139.044 192.94)" fill="#ee3e56"/>
    <path id="Path_3159" data-name="Path 3159" d="M503.934,93.46v5.706h-2.557a.9.9,0,0,1-.9-.9v-4.8H497.57v5.706a2.9,2.9,0,0,0,2.906,2.906h3.459v5.891h2.906V93.46Z" transform="translate(107.249 192.94)" fill="#ee3e56"/>
    <path id="Path_3160" data-name="Path 3160" d="M549.567,91.526a2.7,2.7,0,0,0-5-1.422H538.98v2.906h5.507a.3.3,0,0,1,.122.017,2.642,2.642,0,0,0,.764.764c0,.047.017.077.017.122v10.7h2.906V93.8a2.662,2.662,0,0,0,1.273-2.277m-1.395,0a1.3,1.3,0,0,1-.077.429,1.514,1.514,0,0,1-.183.351.854.854,0,0,1-.277.26.014.014,0,0,0-.014.014c-.047.03-.108.061-.152.091a.015.015,0,0,0-.014.017.761.761,0,0,1-.152.061h-.017c-.061.017-.122.03-.169.047h-.044a.681.681,0,0,1-.183.017,1.3,1.3,0,0,1-1.3-1.3.684.684,0,0,1,.017-.183v-.047a1.605,1.605,0,0,1,.047-.169V91.1a1.461,1.461,0,0,1,.061-.152c0-.014,0-.014.017-.03a1.226,1.226,0,0,1,.091-.152l.014-.014a1.465,1.465,0,0,1,.26-.277,1.3,1.3,0,0,1,.78-.26,1.312,1.312,0,0,1,1.3,1.314" transform="translate(77.298 196.296)" fill="#ee3e56"/>
  </g>
</svg>
